<?xml version="1.0" standalone="no"?>
<!DOCTYPE svg PUBLIC "-//W3C//DTD SVG 20010904//EN"
 "http://www.w3.org/TR/2001/REC-SVG-20010904/DTD/svg10.dtd">
<svg version="1.0" xmlns="http://www.w3.org/2000/svg"
 width="1024.000000pt" height="1024.000000pt" viewBox="0 0 1024.000000 1024.000000"
 preserveAspectRatio="xMidYMid meet">

<g transform="translate(0.000000,1024.000000) scale(0.100000,-0.100000)"
fill="#000000" stroke="none">
<path d="M0 5120 l0 -5120 5120 0 5120 0 0 5120 0 5120 -5120 0 -5120 0 0
-5120z m7022 2812 c-11 -15 -32 -54 -47 -85 -14 -32 -30 -55 -35 -52 -6 4 -10
0 -11 -7 0 -7 -4 -4 -9 7 -7 17 -9 16 -10 -10 -2 -19 -4 -23 -7 -12 -7 27 -25
16 -39 -24 -12 -33 -12 -34 -13 -6 -2 55 52 135 124 183 60 41 73 43 47 6z
m263 -93 c-16 -30 -29 -36 -40 -19 -5 8 -12 7 -23 -1 -10 -6 1 5 23 24 45 41
62 39 40 -4z m-655 -1 c-25 -5 -76 -16 -115 -24 -102 -21 -344 -100 -465 -151
-92 -39 -155 -71 -333 -171 -22 -12 -63 -39 -91 -60 -70 -53 -192 -112 -230
-112 -71 0 -65 39 12 91 26 18 59 43 73 56 55 51 433 238 569 282 87 28 220
62 302 76 18 4 51 10 73 15 22 4 87 8 145 8 91 0 99 -2 60 -10z m25 -128
c-115 -30 -335 -109 -415 -149 -115 -57 -268 -162 -371 -254 -124 -111 -212
-204 -204 -217 4 -6 1 -9 -6 -8 -18 4 -128 -142 -121 -160 3 -9 1 -13 -5 -9
-11 7 -34 -26 -177 -249 -114 -180 -190 -258 -313 -322 -85 -44 -141 -54 -163
-27 -22 27 -6 48 56 74 33 14 85 43 115 63 88 59 248 236 289 318 7 14 25 39
41 56 16 16 44 53 62 81 79 126 114 171 199 259 51 52 128 126 173 165 84 71
219 169 234 169 5 0 11 7 15 15 3 8 9 15 13 14 20 -3 34 2 28 11 -4 6 -3 10 2
9 15 -4 63 13 63 22 0 5 3 8 8 8 20 -3 32 2 26 13 -4 6 -3 8 3 5 6 -4 44 6 84
22 63 25 152 54 309 99 19 5 55 10 80 10 44 1 43 0 -25 -18z m-207 -251 c4
-31 -20 -53 -47 -44 -24 7 -31 24 -20 53 13 34 63 27 67 -9z m-111 -44 c34
-24 23 -52 -42 -107 -33 -28 -64 -56 -70 -62 -5 -6 -47 -44 -91 -83 -65 -58
-88 -73 -113 -73 -35 0 -47 17 -37 55 16 62 259 274 326 284 3 1 15 -6 27 -14z
m883 -24 c32 -23 70 -79 70 -102 0 -33 -36 -21 -91 31 -30 27 -57 50 -60 50
-11 0 -20 31 -13 42 9 14 63 2 94 -21z m317 -306 c69 -115 137 -230 151 -255
14 -25 38 -58 54 -75 37 -38 148 -206 148 -223 0 -9 -10 -12 -27 -10 -46 5
-150 168 -138 215 3 12 1 24 -4 27 -5 3 -23 30 -39 60 -17 29 -38 61 -47 70
-9 9 -14 16 -10 16 3 0 -4 15 -17 33 -13 17 -28 41 -35 52 -7 11 -38 61 -69
110 -77 121 -95 155 -105 190 -5 20 -5 25 2 15 5 -8 66 -109 136 -225z m-516
132 c16 -59 38 -88 84 -108 22 -10 32 -19 22 -19 -28 0 -95 38 -113 65 -9 13
-18 44 -21 67 -3 24 -11 50 -17 58 -6 8 -1 6 12 -4 12 -11 27 -37 33 -59z
m-1291 -70 c0 -2 -12 -14 -27 -28 l-28 -24 24 28 c23 25 31 32 31 24z m1483
-54 c-7 -2 -19 -2 -25 0 -7 3 -2 5 12 5 14 0 19 -2 13 -5z m-1995 -69 c28 -19
28 -57 0 -84 -35 -33 -88 -8 -88 41 0 27 30 59 55 59 6 0 21 -7 33 -16z m1057
-414 c-19 -104 -19 -382 0 -498 9 -52 27 -141 40 -199 29 -122 30 -133 11
-158 -13 -18 -15 -18 -38 -3 -18 12 -33 42 -56 110 -44 134 -56 215 -56 373 0
115 4 155 23 225 21 80 80 235 86 228 2 -2 -3 -37 -10 -78z m-1005 -566 c-65
-196 -120 -288 -240 -401 -57 -54 -197 -127 -275 -143 -84 -18 -307 -16 -455
4 -212 29 -211 31 30 45 233 13 300 21 410 47 81 20 107 33 195 99 136 102
269 267 337 418 34 76 33 37 -2 -69z m-320 -192 c0 -9 -93 -81 -140 -108 -37
-21 -126 -54 -200 -75 -31 -9 -144 -13 -370 -14 -350 -1 -387 -5 -559 -60
-103 -33 -255 -110 -336 -172 l-60 -45 70 69 c138 135 318 227 515 265 30 5
222 13 425 18 414 9 420 10 575 90 88 45 80 42 80 32z m-743 -219 c-20 -2 -52
-2 -70 0 -17 2 0 4 38 4 39 0 53 -2 32 -4z m-320 -9 c-3 -3 -12 -4 -19 -1 -8
3 -5 6 6 6 11 1 17 -2 13 -5z m1977 -52 c119 -97 184 -142 204 -142 26 0 84
-49 147 -123 113 -132 156 -188 136 -175 -12 7 -21 16 -21 20 0 3 -25 27 -55
53 l-54 47 -27 -21 c-32 -25 -92 -28 -133 -6 -24 12 -30 24 -41 77 -11 58 -17
68 -89 143 -95 98 -163 185 -145 185 4 0 39 -26 78 -58z m326 -58 c0 -2 -7 -4
-17 -4 -9 0 -34 19 -55 43 -67 72 -64 84 5 23 37 -32 67 -60 67 -62z m-2141
-240 c24 -20 31 -34 31 -62 0 -21 -7 -45 -14 -54 -11 -15 -80 -38 -155 -53
-39 -7 -78 -36 -151 -110 -41 -42 -87 -83 -102 -91 -73 -38 -148 7 -148 90 0
56 10 74 75 140 85 87 263 164 382 165 41 1 57 -4 82 -25z m-936 -169 c-52
-100 -100 -211 -163 -375 -93 -245 -151 -357 -262 -512 -144 -199 -373 -323
-633 -342 l-80 -6 80 15 c136 26 321 97 308 118 -3 6 -1 7 5 3 16 -9 95 42 86
56 -5 7 -3 8 6 3 18 -11 173 153 242 257 60 90 123 208 111 208 -5 0 -3 4 3 8
9 6 42 82 79 182 41 111 93 226 137 305 55 99 115 185 128 185 5 0 -16 -47
-47 -105z m2594 15 c77 -57 143 -188 143 -284 0 -97 -68 -143 -149 -101 -74
38 -180 204 -189 295 -4 42 -1 50 31 83 46 50 103 52 164 7z m2070 -166 c-3
-3 -12 -4 -19 -1 -8 3 -5 6 6 6 11 1 17 -2 13 -5z m180 -9 c50 -15 133 -67
133 -84 0 -5 -26 0 -57 11 -49 17 -73 19 -158 14 -55 -3 -136 -15 -180 -26
-73 -18 -250 -38 -215 -24 87 35 263 98 308 109 76 18 108 18 169 0z m43 5 c8
-5 11 -10 5 -10 -5 0 -17 5 -25 10 -8 5 -10 10 -5 10 6 0 17 -5 25 -10z m-717
-147 c-13 -2 -33 -2 -45 0 -13 2 -3 4 22 4 25 0 35 -2 23 -4z m93 -43 c46 -23
134 -96 134 -111 0 -6 -16 2 -35 16 -84 64 -229 73 -420 24 -152 -39 -162 -41
-270 -72 -84 -24 -409 -109 -465 -122 -17 -3 -14 0 10 11 19 9 40 17 45 19 15
3 48 16 65 24 8 4 116 40 240 80 124 40 239 78 255 85 17 7 82 26 145 42 63
16 116 32 118 35 5 11 136 -11 178 -31z m649 -120 c0 -21 -5 -25 -30 -25 -33
0 -48 30 -23 46 25 17 53 6 53 -21z m-603 -163 c9 -17 7 -24 -12 -39 -28 -23
-60 -8 -60 27 0 45 50 53 72 12z m-4522 -197 c0 -5 -4 -10 -10 -10 -5 0 -7 -7
-4 -15 4 -9 0 -15 -9 -15 -19 0 -29 24 -14 39 14 14 37 14 37 1z m-38 -77 c8
-31 -12 -82 -38 -99 -22 -15 -27 -15 -40 -2 -14 13 -14 19 -1 50 13 31 50 68
68 68 4 0 9 -8 11 -17z m3737 -94 c-66 -84 -226 -194 -354 -244 -85 -34 -198
-60 -297 -69 -67 -6 -63 17 5 31 270 56 456 138 607 266 36 31 67 56 68 56 2
1 -11 -18 -29 -40z m1478 -151 c7 -85 -28 -156 -72 -146 -13 2 -11 10 12 43
23 34 27 49 25 104 -1 35 1 68 4 73 13 20 26 -12 31 -74z m-721 -156 c5 -61 3
-71 -22 -110 -26 -39 -58 -61 -71 -49 -2 3 7 23 21 44 22 32 26 48 26 113 0
46 5 81 12 88 18 18 28 -7 34 -86z m-4756 -7 c-66 -153 -219 -294 -387 -354
-82 -30 -153 -48 -141 -36 3 4 8 6 10 5 1 -1 34 13 72 30 147 66 294 184 402
326 31 41 58 74 60 74 2 0 -5 -20 -16 -45z m2178 -419 c2 -173 2 -180 -20
-203 -24 -26 -68 -31 -68 -8 0 8 3 15 8 15 22 0 32 63 32 210 0 86 3 160 7
164 4 4 14 5 23 4 13 -3 15 -30 18 -182z m3268 166 c13 -9 64 -77 64 -86 0
-11 -54 21 -83 49 -26 27 -28 45 -4 45 7 0 17 -4 23 -8z m-730 -268 c20 -31
34 -57 32 -59 -2 -3 -29 16 -61 40 -38 30 -55 50 -51 60 12 31 44 15 80 -41z
m-3120 -249 c15 -23 15 -27 0 -50 -20 -31 -61 -33 -76 -5 -12 23 0 53 28 69
25 15 30 14 48 -14z m2052 -37 c18 -18 15 -42 -7 -62 -27 -25 -55 -17 -59 16
-2 18 4 31 20 42 27 19 31 19 46 4z"/>
</g>
</svg>
