<?xml version="1.0" standalone="no"?>
<!DOCTYPE svg PUBLIC "-//W3C//DTD SVG 20010904//EN"
 "http://www.w3.org/TR/2001/REC-SVG-20010904/DTD/svg10.dtd">
<svg version="1.0" xmlns="http://www.w3.org/2000/svg"
 width="1024.000000pt" height="1024.000000pt" viewBox="0 0 1024.000000 1024.000000"
 preserveAspectRatio="xMidYMid meet">

<g transform="translate(0.000000,1024.000000) scale(0.100000,-0.100000)"
fill="#000000" stroke="none">
<path d="M0 5120 l0 -5120 5120 0 5120 0 0 5120 0 5120 -5120 0 -5120 0 0
-5120z m6472 2763 c-26 -250 -135 -456 -308 -579 -36 -26 -67 -44 -70 -41 -3
3 3 22 14 44 23 44 84 214 79 219 -6 7 -157 -96 -203 -138 -26 -24 -73 -78
-106 -120 l-59 -78 -51 0 c-44 0 -49 2 -43 18 4 9 15 40 25 67 56 161 180 335
345 484 117 106 360 260 379 241 5 -5 5 -51 -2 -117z m482 80 c15 -96 -7 -267
-53 -400 -26 -75 -113 -233 -129 -233 -4 0 -14 21 -22 48 -15 46 -14 48 12 97
49 93 71 173 72 270 0 50 -3 106 -7 126 -7 36 -6 38 50 83 32 25 61 46 64 46
4 0 9 -17 13 -37z m-204 -126 c0 -1 -28 -29 -62 -62 l-63 -60 60 63 c55 58 65
67 65 59z m-1315 -186 l30 -6 -50 -35 c-27 -19 -97 -80 -154 -136 l-104 -102
-91 -7 c-116 -9 -297 -38 -431 -70 -218 -51 -569 -181 -730 -270 -33 -18 -91
-50 -130 -70 -127 -69 -300 -183 -475 -314 l-35 -26 19 30 c96 151 283 360
429 478 357 289 750 459 1202 521 102 14 466 19 520 7z m1091 -263 c28 -32 28
-32 2 -9 l-28 24 0 -39 c0 -56 -26 -149 -58 -208 -34 -63 -122 -154 -185 -190
-155 -91 -421 -130 -620 -92 -79 15 -278 89 -359 133 -63 35 -55 40 13 9 164
-75 550 -75 761 0 201 72 326 174 401 327 20 42 39 77 40 77 2 0 16 -15 33
-32z m49 -58 c10 -11 16 -20 13 -20 -3 0 -13 9 -23 20 -10 11 -16 20 -13 20 3
0 13 -9 23 -20z m-1525 -301 c-153 -234 -265 -539 -317 -859 -14 -88 -18 -166
-17 -335 1 -257 18 -385 79 -580 3 -11 -11 12 -31 50 -69 131 -142 360 -180
571 -21 112 -24 386 -6 463 7 30 11 56 8 58 -5 5 -49 -70 -92 -158 -54 -109
-67 -181 -68 -364 0 -201 26 -338 86 -458 11 -22 17 -41 15 -44 -8 -7 -74 116
-128 237 -26 60 -66 140 -88 177 -92 156 -150 360 -158 559 -9 205 37 514 82
559 38 39 341 138 554 181 101 21 305 45 319 38 2 -1 -25 -44 -58 -95z m1814
-261 c58 -119 107 -183 250 -328 l116 -117 0 -124 0 -124 59 -125 c161 -345
476 -1001 577 -1203 154 -308 154 -288 -1 -565 l-40 -72 -127 0 c-71 0 -128 2
-128 4 0 6 29 56 122 212 43 73 78 135 78 138 0 4 -67 6 -149 4 l-149 -3 -11
32 c-18 48 -65 83 -112 83 -83 0 -134 -50 -211 -206 -28 -57 -52 -103 -54
-101 -2 1 3 58 10 125 16 139 10 186 -32 246 -26 38 -26 38 -7 53 55 41 162
97 227 120 84 29 246 41 341 25 31 -5 57 -5 57 -1 0 4 -56 120 -124 256 -114
228 -250 510 -390 807 l-56 119 0 128 0 127 -86 79 c-113 102 -178 186 -236
300 l-46 93 -21 -29 c-37 -51 -241 -192 -277 -191 -5 0 19 15 52 34 34 18 84
49 111 69 59 43 180 168 195 203 6 13 12 24 14 24 1 0 23 -42 48 -92z m-2906
-35 c-6 -21 -12 -146 -15 -278 -7 -350 19 -512 133 -812 108 -286 276 -569
549 -923 162 -209 324 -459 379 -584 25 -59 46 -109 46 -113 0 -3 -39 32 -87
78 -49 46 -194 172 -323 280 -217 182 -405 360 -496 469 -323 392 -522 877
-541 1320 -5 121 9 347 24 387 3 8 33 33 67 56 64 44 256 156 267 157 4 0 2
-17 -3 -37z m1309 -395 c100 -49 131 -68 76 -47 -90 34 -194 99 -258 163 l-70
68 75 -67 c53 -47 104 -81 177 -117z m1100 76 c-3 -3 -12 -4 -19 -1 -8 3 -5 6
6 6 11 1 17 -2 13 -5z m137 -38 c28 -14 67 -39 86 -56 34 -31 33 -30 -15 3
-47 33 -123 68 -170 80 -11 2 -5 3 14 1 19 -2 57 -15 85 -28z m-3091 -526 c49
-233 99 -381 212 -615 88 -181 192 -349 429 -688 275 -394 347 -518 464 -792
171 -401 213 -835 125 -1283 -12 -63 -19 -82 -30 -78 -35 14 -279 181 -373
256 -221 177 -540 521 -708 765 -242 351 -420 746 -516 1145 -96 400 -112 776
-45 1105 53 262 147 442 335 644 l69 74 6 -204 c5 -163 12 -229 32 -329z
m2311 369 c-111 -165 -163 -327 -171 -540 -11 -248 59 -443 229 -646 61 -73
163 -153 298 -233 329 -195 490 -389 549 -662 27 -123 52 -191 100 -264 77
-120 219 -221 365 -258 32 -9 61 -18 63 -20 11 -11 -131 -68 -192 -77 -225
-35 -453 109 -514 326 -7 22 -16 90 -21 150 -10 135 -38 211 -113 310 -88 117
-218 209 -405 287 -150 62 -241 112 -328 182 -144 116 -255 282 -306 461 -33
115 -33 344 0 458 45 156 135 299 270 429 72 68 199 161 210 153 1 -1 -14 -26
-34 -56z m569 -30 c80 -11 93 -15 121 -44 18 -18 54 -74 79 -126 l47 -94 -72
-3 c-101 -4 -145 4 -205 38 -48 28 -57 38 -98 123 -25 51 -45 98 -45 105 0 15
56 15 173 1z m-268 -305 c9 -15 12 -23 6 -20 -11 7 -35 46 -28 46 3 0 12 -12
22 -26z m110 -117 c6 -6 -3 -1 -20 10 -16 12 -41 34 -55 49 -17 19 -10 15 20
-10 25 -21 50 -43 55 -49z m111 -55 c-5 -4 -96 35 -96 42 0 2 22 -5 50 -17 27
-11 48 -23 46 -25z m-3505 -60 c-37 -166 -49 -592 -23 -792 16 -117 54 -293
91 -411 27 -88 27 -91 13 -167 -10 -52 -15 -147 -16 -292 0 -187 3 -229 23
-320 21 -98 60 -242 76 -282 12 -31 -2 -20 -38 30 -70 95 -196 367 -262 567
-78 238 -106 427 -106 725 -1 321 48 548 188 876 57 135 74 156 54 66z m3831
19 c61 -24 124 -69 159 -116 16 -21 7 -16 -28 17 -87 80 -150 104 -313 118
l-105 9 115 -3 c89 -3 128 -8 172 -25z m-898 -1238 c51 -25 55 -29 61 -70 21
-141 72 -309 281 -918 79 -229 123 -443 124 -593 0 -87 -26 -250 -50 -315 -25
-67 -86 -162 -130 -202 l-32 -30 19 40 c75 151 103 406 68 611 -27 155 -63
280 -185 649 -126 384 -170 536 -194 680 -18 106 -26 175 -20 175 2 0 28 -12
58 -27z m156 -893 c-8 -5 -22 -9 -30 -9 -10 0 -8 3 5 9 27 12 43 12 25 0z
m-60 -20 c-8 -5 -19 -10 -25 -10 -5 0 -3 5 5 10 8 5 20 10 25 10 6 0 3 -5 -5
-10z m-60 -25 c-14 -8 -29 -14 -35 -14 -5 0 1 6 15 14 14 8 30 14 35 14 6 0
-1 -6 -15 -14z m-90 -40 c0 -2 -10 -9 -22 -15 -22 -11 -22 -10 -4 4 21 17 26
19 26 11z m-110 -69 c0 -2 -8 -10 -17 -17 -16 -13 -17 -12 -4 4 13 16 21 21
21 13z m-45 -36 c-3 -5 -20 -19 -38 -30 -32 -22 -32 -22 3 9 37 32 45 37 35
21z m-45 -157 c8 -10 25 -30 38 -44 l23 -27 -35 -54 c-67 -106 -103 -222 -107
-343 -3 -112 -1 -115 26 -57 47 102 166 250 269 335 l51 42 -48 -55 c-54 -63
-97 -142 -97 -180 0 -14 9 -43 19 -64 l20 -38 -44 -65 c-55 -82 -126 -249
-159 -373 l-24 -95 -51 2 c-89 4 -397 85 -452 119 -4 2 4 48 17 101 86 344
216 593 418 801 l100 103 11 -45 c7 -25 18 -53 25 -63z"/>
</g>
</svg>
